<svg xmlns="http://www.w3.org/2000/svg" width="40" height="40">
    <path fill="#F16D7F" fill-rule="evenodd" d="M36.584 17.028l3.412 2.971-3.412 2.974 2.209 3.973-4.21 1.605.733 4.502-4.496.046-.821 4.49-4.24-1.516-2.289 3.929-3.471-2.904-3.472 2.904-2.288-3.929-4.241 1.515-.821-4.49-4.495-.045.732-4.506-4.209-1.601 2.21-3.975-3.412-2.972 3.412-2.973-2.21-3.974 4.21-1.603-.733-4.504 4.495-.044.822-4.49 4.24 1.515 2.289-3.928L20 2.902l3.472-2.904 2.289 3.929 4.241-1.515.821 4.49 4.494.045-.732 4.504 4.209 1.603-2.21 3.974zm-2.664-3.776l-1.46-.555.255-1.563.372-2.286-2.283-.023-1.56-.017-.285-1.557-.417-2.278-2.152.768-1.468.524-.793-1.359-1.162-1.994-1.762 1.473-1.206 1.007-1.205-1.007-1.762-1.473-1.161 1.993-.793 1.359-1.468-.524-2.151-.768-.417 2.278-.286 1.557-1.56.017-2.282.022.372 2.287.254 1.562-1.459.556-2.135.813 1.12 2.014.767 1.378-1.183 1.031-1.735 1.511 1.734 1.509 1.183 1.031-.766 1.379-1.121 2.014 2.133.812 1.46.556-.255 1.562-.371 2.289 2.282.022 1.561.017.285 1.558.416 2.278 2.153-.769 1.468-.524.793 1.36 1.162 1.994 1.762-1.474 1.205-1.008 1.206 1.008 1.762 1.474 1.161-1.994.792-1.359 1.469.524 2.151.769.417-2.277.285-1.558 1.561-.017 2.282-.021-.372-2.287-.253-1.563 1.459-.556 2.134-.815-1.121-2.014-.766-1.378 1.183-1.03 1.734-1.513-1.733-1.508-1.184-1.03.767-1.379 1.121-2.015-2.134-.813zm-9.248 14.174c-1.783 0-3.328-1.452-3.349-4.361 0-2.932 1.566-4.564 3.46-4.564 2.006 0 3.305 1.566 3.304 4.338 0 3.066-1.585 4.587-3.415 4.587zm.045-7.738c-1.212 0-1.873 1.454-1.873 3.288-.022 1.856.683 3.265 1.873 3.265 1.277 0 1.849-1.387 1.849-3.309 0-1.769-.506-3.244-1.849-3.244zm-9.518 7.699l8.416-14.749h1.233l-8.416 14.749h-1.233zm.132-5.979c-1.784 0-3.326-1.454-3.348-4.384 0-2.907 1.564-4.542 3.458-4.542 2.005 0 3.327 1.568 3.327 4.341 0 3.064-1.585 4.585-3.437 4.585zm.045-7.739c-1.21 0-1.851 1.453-1.851 3.289-.044 1.855.641 3.264 1.851 3.266 1.277 0 1.85-1.388 1.85-3.31 0-1.769-.506-3.245-1.85-3.245z"/>
</svg>
