<svg xmlns="http://www.w3.org/2000/svg" width="45" height="32">
    <path fill="#F16D7F" fill-rule="evenodd" d="M44.071 27.297h-2.815C40.812 29.963 38.518 32 35.762 32c-2.758 0-5.052-2.037-5.496-4.703H14.784C14.341 29.963 12.046 32 9.29 32c-2.757 0-5.052-2.037-5.496-4.703H1.857C.833 27.297 0 26.454 0 25.417V1.88C0 .843.833 0 1.857 0h25.558c1.024 0 1.857.843 1.857 1.88v1.909h7.123c.082 0 .161.011.237.031 2.306.204 3.458 1.408 4.679 3.47l3.56 6.106c.084.145.129.31.129.478v12.483c0 .519-.416.94-.929.94zM9.29 30.12c2.049 0 3.716-1.688 3.716-3.763s-1.667-3.763-3.716-3.763c-2.05 0-3.717 1.688-3.717 3.763S7.24 30.12 9.29 30.12zM27.415 1.88H1.857v23.537h1.937c.444-2.665 2.739-4.702 5.496-4.702 2.757 0 5.051 2.037 5.494 4.702h12.631V1.88zm8.347 28.24c2.049 0 3.716-1.688 3.716-3.763s-1.668-3.763-3.716-3.763c-2.05 0-3.718 1.688-3.718 3.763s1.668 3.763 3.718 3.763zm4.057-21.69h-6.9v3.767c0 .529.425.959.947.959.065 0 .129.007.19.019h8.53L39.819 8.43zm3.324 7.628h-.88a.935.935 0 0 0-.928.94v.911h1.808v-1.851zm0 3.73h-2.737a.934.934 0 0 1-.928-.94v-1.85c0-.752.293-1.436.769-1.942h-6.381a.924.924 0 0 1-.23-.03c-1.439-.118-2.574-1.342-2.574-2.829V7.49c0-.519.416-.94.928-.94h6.485c-.653-.628-1.393-.881-2.578-.881h-6.625v19.748h.994c.443-2.665 2.738-4.702 5.496-4.702 2.756 0 5.051 2.037 5.494 4.702h1.887v-5.629zm-7.382 3.786c.513 0 .929.421.929.94 0 .519-.416.94-.929.94a.9.9 0 0 0-.893.903.9.9 0 0 0 .893.904.9.9 0 0 0 .892-.904c0-.519.416-.94.929-.94.513 0 .928.421.928.94 0 1.535-1.233 2.784-2.749 2.784s-2.75-1.249-2.75-2.784c0-1.535 1.234-2.783 2.75-2.783zM3.753 4.729c0-.519.416-.94.928-.94h19.91c.513 0 .928.421.928.94 0 .519-.415.94-.928.94H4.681a.934.934 0 0 1-.928-.94zM9.29 23.574c.512 0 .928.421.928.94 0 .519-.416.94-.928.94a.899.899 0 0 0-.893.903.9.9 0 0 0 .893.904.9.9 0 0 0 .892-.904c0-.519.416-.94.928-.94.513 0 .929.421.929.94 0 1.535-1.233 2.784-2.749 2.784-1.517 0-2.75-1.249-2.75-2.784 0-1.535 1.233-2.783 2.75-2.783z"/>
</svg>
